<?xml version="1.0" encoding="utf-8"?>
<!-- Generator: Adobe Illustrator 26.3.1, SVG Export Plug-In . SVG Version: 6.00 Build 0)  -->
<svg version="1.1" id="Camada_1" xmlns="http://www.w3.org/2000/svg" xmlns:xlink="http://www.w3.org/1999/xlink" x="0px" y="0px"
	 viewBox="0 0 300 300" style="enable-background:new 0 0 300 300;" xml:space="preserve">
<style type="text/css">
	.st0{fill:#AAAAA7;}
	.st1{stroke:#AAAAA7;stroke-miterlimit:10;}
	.st2{fill:none;stroke:#000000;stroke-miterlimit:10;}
	.st3{fill:#AAAAA7;stroke:#000000;stroke-miterlimit:10;}
</style>
<path d="M273.34,285.85l-8.9,7.58c-2.72,2.31-6.79,1.99-9.11-0.73l-24.21-28.44c-2.31-2.72-1.99-6.79,0.73-9.11l8.9-7.58
	c2.72-2.31,6.79-1.99,9.11,0.73l24.21,28.44C276.39,279.46,276.06,283.54,273.34,285.85z"/>
<path d="M255.02,290.85l-3.53-11.15c-1.08-3.4,0.8-7.03,4.21-8.11l29.73-9.43c3.4-1.08,7.03,0.8,8.11,4.21l3.53,11.15
	c1.08,3.4-0.81,7.03-4.21,8.11l-29.73,9.43C259.73,296.13,256.1,294.25,255.02,290.85z"/>
<path class="st0" d="M263.58,276.51l-5.47,4.66c-1.26,1.08-3.16,0.92-4.24-0.34l-12.06-14.16c-1.08-1.26-0.92-3.16,0.34-4.24
	l5.47-4.66c1.26-1.08,3.16-0.92,4.24,0.34l12.06,14.16C265,273.54,264.84,275.44,263.58,276.51z"/>
<circle class="st1" cx="149.37" cy="150.11" r="142.18"/>
<circle class="st2" cx="149.37" cy="150.11" r="135.97"/>
<circle class="st1" cx="146.71" cy="150.11" r="98.31"/>
<circle class="st3" cx="80.58" cy="82.85" r="19.6"/>
<circle class="st3" cx="44.94" cy="150.11" r="19.6"/>
<circle class="st3" cx="80.58" cy="217.37" r="19.6"/>
<circle class="st3" cx="150.82" cy="256.56" r="19.6"/>
<circle class="st3" cx="221.06" cy="217.37" r="19.6"/>
<circle class="st3" cx="252.6" cy="150.11" r="19.6"/>
<circle class="st3" cx="221.06" cy="82.85" r="19.6"/>
<circle class="st3" cx="144.94" cy="46.16" r="19.6"/>
<circle class="st3" cx="150.82" cy="150.15" r="74.96"/>
<circle class="st3" cx="150.82" cy="150.15" r="62.02"/>
<path class="st0" d="M274.27,282.86l-2.41-5.41c-0.68-1.52,0-3.3,1.52-3.97l12.4-5.53c1.52-0.68,3.3,0,3.97,1.52l2.41,5.41
	c0.68,1.52,0,3.3-1.52,3.97l-12.4,5.53C276.73,285.06,274.95,284.37,274.27,282.86z"/>
</svg>
